<?xml version="1.0" encoding="utf-8"?>
<!-- Generator: Adobe Illustrator 24.3.0, SVG Export Plug-In . SVG Version: 6.00 Build 0)  -->
<svg version="1.1"
	 id="svg2" inkscape:output_extension="org.inkscape.output.svg.inkscape" inkscape:version="0.45.1" sodipodi:docbase="C:\Wiki Uploads\Commons" sodipodi:docname="Cartas_Zener.svg" sodipodi:version="0.32" xmlns:cc="http://web.resource.org/cc/" xmlns:dc="http://purl.org/dc/elements/1.1/" xmlns:inkscape="http://www.inkscape.org/namespaces/inkscape" xmlns:rdf="http://www.w3.org/1999/02/22-rdf-syntax-ns#" xmlns:sodipodi="http://sodipodi.sourceforge.net/DTD/sodipodi-0.dtd" xmlns:svg="http://www.w3.org/2000/svg"
	 xmlns="http://www.w3.org/2000/svg" xmlns:xlink="http://www.w3.org/1999/xlink" x="0px" y="0px" viewBox="0 0 131.6 212"
	 style="enable-background:new 0 0 131.6 212;" xml:space="preserve">
<style type="text/css">
	.st0{fill:#FFFFFF;stroke:#000000;stroke-width:4;stroke-linecap:round;stroke-linejoin:round;}
	.st1{fill:#094CF6;}
</style>
<g id="g1916" transform="translate(150,1.921275)">
	<path id="rect2081" class="st0" d="M-132.7,0.1h97.1c8.5,0,15.3,6.8,15.3,15.3v177.4c0,8.5-6.8,15.3-15.3,15.3h-97.1
		c-8.5,0-15.3-6.8-15.3-15.3V15.4C-147.9,6.9-141.1,0.1-132.7,0.1z"/>
	<g id="g6261">
		<path id="path2161" sodipodi:nodetypes="cccccccccccccccc" class="st1" d="M-85.8,142.3c2.5-5.1,3.3-11.3,0.5-16.5
			c-2.1-4.2-4.8-7.8-7.4-11.7c-4.1-5.3-7.3-11.8-5.8-18.5c0.8-4.8,3.7-9,6-13.3c2.3-3.7,4.5-7.8,5.5-12.1c1.1-5.9-0.6-14.5-4.7-19.1
			l12.1,0c2.9,4.5,6.1,9.3,5.6,14.9c0.5,7.2-4.2,13.3-7.4,19.5c-3.7,5.9-6.5,13.3-3.4,20c2.9,6.3,7.6,11.7,11.1,17.8
			c2.9,4.5,3.1,10.2,2,15.2c-2.1,5.6-5.2,12.7-7.7,18.1l-13.1,0C-90.8,151.6-88,147-85.8,142.3z"/>
		<path id="path2248" sodipodi:nodetypes="cccccccccccccccc" class="st1" d="M-106,142.3c2.5-5.1,3.3-11.3,0.5-16.5
			c-2.1-4.2-4.8-7.8-7.4-11.7c-4.1-5.3-7.3-11.8-5.8-18.5c0.8-4.8,3.7-9,6-13.3c2.3-3.7,4.5-7.8,5.5-12.1c1.1-5.9-0.6-14.5-4.7-19.1
			l12.1,0c2.9,4.5,6.1,9.3,5.6,14.9c0.5,7.2-4.2,13.3-7.4,19.5c-3.7,5.9-6.5,13.3-3.4,20c2.9,6.3,7.6,11.7,11.1,17.8
			c2.9,4.5,3.1,10.2,2,15.2c-2.1,5.6-5.2,12.7-7.7,18.1l-13.1,0C-111.1,151.6-108.3,147-106,142.3z"/>
		<path id="path2250" sodipodi:nodetypes="cccccccccccccccc" class="st1" d="M-65.5,142.3c2.5-5.1,3.3-11.3,0.5-16.5
			c-2.1-4.2-4.8-7.8-7.4-11.7c-4.1-5.3-7.3-11.8-5.8-18.5c0.8-4.8,3.7-9,6-13.3c2.3-3.7,4.5-7.8,5.5-12.1c1.1-5.9-0.6-14.5-4.7-19.1
			l12.1,0c2.9,4.5,6.1,9.3,5.6,14.9c0.5,7.2-4.2,13.3-7.4,19.5c-3.7,5.9-6.5,13.3-3.4,20c2.9,6.3,7.6,11.7,11.1,17.8
			c2.9,4.5,3.1,10.2,2,15.2c-2.1,5.6-5.2,12.7-7.7,18.1l-13.1,0C-70.6,151.6-67.8,147-65.5,142.3z"/>
	</g>
</g>
</svg>
